<svg t="1593330790849" class="icon" viewBox="0 0 1024 1024" version="1.1" xmlns="http://www.w3.org/2000/svg" p-id="6472" width="200" height="200"><path d="M239.36 0H93.44C40.96 0 0 42.24 0 93.44v593.92l239.36-163.84V0zM652.8 239.36L328.96 0h-32v483.84z" fill="#C857F2" p-id="6473"></path><path d="M0 687.36v243.2c0 51.2 42.24 93.44 93.44 93.44h147.2V522.24L0 687.36z" fill="#A143BC" p-id="6474"></path><path d="M980.48 15.36C966.4 5.12 949.76 0 930.56 0h-601.6L652.8 239.36 980.48 15.36z" fill="#873FBC" p-id="6475"></path><path d="M980.48 15.36L652.8 239.36l371.2 275.2v-422.4c0-32-16.64-61.44-43.52-76.8z" fill="#6B3096" p-id="6476"></path><path d="M492.8 648.96h-38.4v87.04H499.2c35.84 0 56.32-10.24 56.32-44.8 0-37.12-23.04-42.24-62.72-42.24zM797.44 648.96h-33.28V742.4h43.52c34.56 0 57.6-12.8 57.6-48.64 0-42.24-30.72-44.8-67.84-44.8z" fill="#A143BC" p-id="6477"></path><path d="M652.8 239.36L296.96 483.84V1024h633.6c51.2 0 93.44-42.24 93.44-93.44V514.56L652.8 239.36z m-101.12 691.2l-76.8-133.12h-20.48v133.12h-72.96V587.52h128c81.92 0 117.76 35.84 117.76 103.68 0 56.32-33.28 85.76-74.24 97.28l89.6 142.08h-90.88z m256-126.72h-43.52v128H691.2V587.52h122.88c81.92 0 122.88 39.68 122.88 106.24 0 80.64-62.72 110.08-129.28 110.08z" fill="#A143BC" p-id="6478"></path></svg>